<svg id="Layer_1" data-name="Layer 1" xmlns="http://www.w3.org/2000/svg" xmlns:xlink="http://www.w3.org/1999/xlink" viewBox="0 0 117.93 88.2"><defs><style>.cls-1{fill:#ed3626;}.cls-2,.cls-3{fill:#010101;}.cls-2{stroke:#51181f;stroke-miterlimit:10;stroke-width:0.17px;}.cls-4{font-size:6.13px;font-family:AdobeGothicStd-Bold-KSCpc-EUC-H, Adobe Gothic Std;}.cls-4,.cls-7{fill:#fff;}.cls-5,.cls-6{font-size:5.79px;}.cls-6{letter-spacing:0em;}.cls-7{font-size:7.66px;font-family:Righteous-Regular, Righteous;letter-spacing:0em;}.cls-8{fill:url(#linear-gradient);}.cls-9{fill:url(#linear-gradient-2);}.cls-10{fill:url(#linear-gradient-3);}.cls-11{fill:url(#linear-gradient-4);}.cls-12{fill:url(#linear-gradient-5);}.cls-13{fill:url(#linear-gradient-6);}.cls-14{fill:url(#linear-gradient-7);}.cls-15{fill:url(#linear-gradient-8);}.cls-16{fill:url(#linear-gradient-9);}.cls-17{fill:url(#linear-gradient-10);}.cls-18{fill:url(#linear-gradient-11);}.cls-19{fill:url(#linear-gradient-12);}.cls-20{fill:url(#linear-gradient-13);}.cls-21{fill:url(#linear-gradient-14);}.cls-22{fill:url(#linear-gradient-15);}.cls-23{fill:url(#linear-gradient-16);}.cls-24{fill:url(#linear-gradient-17);}.cls-25{fill:url(#linear-gradient-18);}</style><linearGradient id="linear-gradient" x1="10.47" y1="18.99" x2="10.47" y2="1.3" gradientUnits="userSpaceOnUse"><stop offset="0" stop-color="#939393"/><stop offset="0.16" stop-color="#989490"/><stop offset="0.29" stop-color="#949192"/><stop offset="0.48" stop-color="#afabaa"/><stop offset="0.5" stop-color="#b2aead"/><stop offset="0.68" stop-color="#989490"/><stop offset="0.83" stop-color="#938e8a"/><stop offset="1" stop-color="#989392"/></linearGradient><linearGradient id="linear-gradient-2" x1="-2128.84" y1="1417.74" x2="-2128.84" y2="1400.05" gradientTransform="translate(-1398.25 -2100.28) rotate(-90)" gradientUnits="userSpaceOnUse"><stop offset="0" stop-color="#fff"/><stop offset="0.15" stop-color="#fff"/><stop offset="0.26" stop-color="#fff"/><stop offset="0.41" stop-color="#f8f6f8"/><stop offset="0.54" stop-color="#f1edee"/><stop offset="0.68" stop-color="#e0dbda"/><stop offset="0.74" stop-color="#d1ccca"/><stop offset="0.83" stop-color="#bfb9b6"/><stop offset="0.85" stop-color="#bdb6b4"/><stop offset="1" stop-color="#b1aaa8"/></linearGradient><linearGradient id="linear-gradient-3" x1="-1569.6" y1="-991.77" x2="-1569.6" y2="-1009.47" gradientTransform="translate(-929.11 1616.41) rotate(90)" xlink:href="#linear-gradient-2"/><linearGradient id="linear-gradient-4" x1="1.63" y1="46.98" x2="19.33" y2="46.98" gradientUnits="userSpaceOnUse"><stop offset="0" stop-color="#b1aaa8"/><stop offset="0.15" stop-color="#bdb6b4"/><stop offset="0.17" stop-color="#bfb9b6"/><stop offset="0.26" stop-color="#d1ccca"/><stop offset="0.32" stop-color="#e0dbda"/><stop offset="0.46" stop-color="#f1edee"/><stop offset="0.59" stop-color="#f8f6f8"/><stop offset="0.74" stop-color="#fff"/><stop offset="0.85" stop-color="#fff"/><stop offset="1" stop-color="#fff"/></linearGradient><linearGradient id="linear-gradient-5" x1="6.22" y1="33.53" x2="23.92" y2="51.23" xlink:href="#linear-gradient"/><linearGradient id="linear-gradient-6" x1="81.08" y1="65.4" x2="98.77" y2="65.4" xlink:href="#linear-gradient-4"/><linearGradient id="linear-gradient-7" x1="85.67" y1="51.96" x2="103.37" y2="69.65" xlink:href="#linear-gradient"/><linearGradient id="linear-gradient-8" x1="41.35" y1="65.4" x2="59.05" y2="65.4" xlink:href="#linear-gradient-4"/><linearGradient id="linear-gradient-9" x1="45.95" y1="51.96" x2="63.64" y2="69.65" xlink:href="#linear-gradient"/><linearGradient id="linear-gradient-10" x1="20.05" y1="65.43" x2="37.4" y2="65.43" xlink:href="#linear-gradient-4"/><linearGradient id="linear-gradient-11" x1="20.04" y1="28.56" x2="37.74" y2="28.56" xlink:href="#linear-gradient"/><linearGradient id="linear-gradient-12" x1="20.21" y1="28.39" x2="37.91" y2="28.39" xlink:href="#linear-gradient-4"/><linearGradient id="linear-gradient-13" x1="81.08" y1="28.56" x2="98.77" y2="28.56" xlink:href="#linear-gradient"/><linearGradient id="linear-gradient-14" x1="81.25" y1="28.39" x2="98.95" y2="28.39" xlink:href="#linear-gradient-4"/><linearGradient id="linear-gradient-15" x1="41.35" y1="28.56" x2="59.05" y2="28.56" xlink:href="#linear-gradient"/><linearGradient id="linear-gradient-16" x1="-1788.6" y1="1324.02" x2="-1788.6" y2="1341.71" gradientTransform="translate(-1282.49 -1741.62) rotate(-90)" xlink:href="#linear-gradient-4"/><linearGradient id="linear-gradient-17" x1="-2659.13" y1="-335.12" x2="-2641.43" y2="-335.12" gradientTransform="translate(-2578.6 -269.89) rotate(180)" xlink:href="#linear-gradient"/><linearGradient id="linear-gradient-18" x1="99.5" y1="28.56" x2="117.19" y2="28.56" xlink:href="#linear-gradient-4"/></defs><polygon class="cls-1" points="117.9 56.11 99.5 74.52 80.53 74.52 62.45 56.38 62.45 37.41 80.53 19.29 99.5 19.29 117.93 37.69 81.08 37.69 81.08 56.11 117.9 56.11"/><rect class="cls-1" x="41.13" y="19.29" width="18.3" height="55.23"/><polygon class="cls-1" points="19.82 0.86 19.82 19.25 38.15 19.25 38.15 37.67 19.88 37.67 19.88 55.99 37.96 74.52 19.75 74.52 1.35 56.1 1.35 0.86 19.82 0.86"/><rect class="cls-2" x="41.24" width="18.8" height="15.89"/><rect class="cls-1" x="43.4" y="2.28" width="14.45" height="11.47"/><rect class="cls-1" y="77.05" width="117.93" height="11.16"/><rect class="cls-3" x="0.46" y="77.05" width="18.92" height="11.16"/><text class="cls-4" transform="translate(21.93 84.59)">Testing <tspan class="cls-5" x="22.32" y="0">|</tspan><tspan x="23.99" y="0" xml:space="preserve"> Inspection </tspan><tspan class="cls-6" x="56.37" y="0">|</tspan><tspan x="58.04" y="0" xml:space="preserve"> Certification</tspan></text><text class="cls-7" transform="translate(1.93 85.17)">T I C</text><polygon class="cls-8" points="1.63 1.3 19.32 18.99 1.63 18.99 1.63 1.3"/><polygon class="cls-3" points="19.49 1.13 19.49 18.82 1.79 1.13 19.49 1.13"/><polygon class="cls-9" points="1.79 37.41 19.49 19.71 19.49 37.41 1.79 37.41"/><polygon class="cls-3" points="1.63 19.54 19.32 19.54 1.63 37.24 1.63 19.54"/><polygon class="cls-10" points="80.36 37.96 62.66 55.66 62.66 37.96 80.36 37.96"/><polygon class="cls-3" points="80.53 55.83 62.83 55.83 80.53 38.13 80.53 55.83"/><polygon class="cls-11" points="1.63 38.13 19.33 55.83 1.63 55.83 1.63 38.13"/><polygon class="cls-12" points="19.5 37.96 19.5 55.65 1.8 37.96 19.5 37.96"/><polygon class="cls-13" points="81.08 56.55 98.78 74.25 81.08 74.25 81.08 56.55"/><polygon class="cls-14" points="98.94 56.38 98.94 74.08 81.25 56.38 98.94 56.38"/><polygon class="cls-15" points="41.35 56.55 59.05 74.25 41.35 74.25 41.35 56.55"/><polygon class="cls-16" points="59.22 56.38 59.22 74.08 41.52 56.38 59.22 56.38"/><polygon class="cls-3" points="19.5 56.38 19.5 73.88 1.93 56.38 19.5 56.38"/><polygon class="cls-17" points="20.05 56.62 37.4 74.25 20.05 74.25 20.05 56.62"/><polygon class="cls-18" points="20.05 19.71 37.74 37.41 20.05 37.41 20.05 19.71"/><polygon class="cls-19" points="37.91 19.54 37.91 37.24 20.21 19.54 37.91 19.54"/><polygon class="cls-20" points="81.08 19.71 98.78 37.41 81.08 37.41 81.08 19.71"/><polygon class="cls-21" points="98.94 19.54 98.94 37.24 81.25 19.54 98.94 19.54"/><polygon class="cls-22" points="41.35 19.71 59.05 37.41 41.35 37.41 41.35 19.71"/><polygon class="cls-3" points="59.22 19.54 59.22 37.24 41.52 19.54 59.22 19.54"/><polygon class="cls-23" points="41.52 55.83 59.22 38.13 59.22 55.83 41.52 55.83"/><polygon class="cls-3" points="41.35 37.96 59.05 37.96 41.35 55.66 41.35 37.96"/><polygon class="cls-3" points="80.53 37.41 62.83 37.41 80.53 19.71 80.53 37.41"/><polygon class="cls-24" points="80.53 74.08 62.83 56.38 80.53 56.38 80.53 74.08"/><polygon class="cls-25" points="99.5 19.71 117.19 37.41 99.5 37.41 99.5 19.71"/><polygon class="cls-3" points="99.5 56.38 117.19 56.38 99.5 74.08 99.5 56.38"/></svg>