<svg id="Layer_1" data-name="Layer 1" xmlns="http://www.w3.org/2000/svg" viewBox="0 0 315.1 136.47"><defs><style>.cls-1{fill:#ae0d00;}</style></defs><path class="cls-1" d="M364.24,554.84a.17.17,0,0,1,.19.19v45.45A3.52,3.52,0,0,0,368,604h37.92c.13,0,.19.07.19.22v2.06a.17.17,0,0,1-.19.19H356.74a7.68,7.68,0,0,1-7.69-7.65V555c0-.13.07-.19.22-.19Z" transform="translate(-349.05 -494.56)"/><path class="cls-1" d="M462.9,579.36a7.87,7.87,0,0,1,5.47,2.25,7.71,7.71,0,0,1,2.21,5.44v36.33A7.68,7.68,0,0,1,462.9,631H421.25a7.63,7.63,0,0,1-5.4-2.25,7.52,7.52,0,0,1-2.28-5.41V587.05a7.73,7.73,0,0,1,7.68-7.69Zm-30.43,2.41a3.52,3.52,0,0,0-3.5,3.5v39.8a3.53,3.53,0,0,0,1,2.47,3.43,3.43,0,0,0,2.47,1.06h19.28a3.53,3.53,0,0,0,2.49-1.06,3.49,3.49,0,0,0,1-2.47v-39.8a3.49,3.49,0,0,0-1-2.47,3.63,3.63,0,0,0-2.49-1Z" transform="translate(-349.05 -494.56)"/><path class="cls-1" d="M534.88,554.84a.17.17,0,0,1,.19.19v2a.17.17,0,0,1-.19.18H497a3.53,3.53,0,0,0-2.47,1,3.67,3.67,0,0,0-1,2.5v39.71a3.53,3.53,0,0,0,1,2.5,3.48,3.48,0,0,0,2.47,1h19.31a3.48,3.48,0,0,0,2.47-1,3.53,3.53,0,0,0,1-2.5V585.36a3.52,3.52,0,0,0-3.5-3.5h-8.62c-.13,0-.19-.06-.19-.21v-2c0-.12.06-.18.19-.18h19.77a7.68,7.68,0,0,1,7.66,7.65l0,11.72a7.68,7.68,0,0,1-7.69,7.65H485.74a7.62,7.62,0,0,1-5.41-2.25,7.71,7.71,0,0,1-2.25-5.44V562.49a7.68,7.68,0,0,1,7.66-7.65Z" transform="translate(-349.05 -494.56)"/><path class="cls-1" d="M591.93,579.36a7.87,7.87,0,0,1,5.47,2.25,7.71,7.71,0,0,1,2.21,5.44v36.33a7.68,7.68,0,0,1-7.68,7.66H550.28a7.63,7.63,0,0,1-5.4-2.25,7.52,7.52,0,0,1-2.28-5.41V587.05a7.73,7.73,0,0,1,7.68-7.69Zm-30.43,2.41a3.52,3.52,0,0,0-3.5,3.5v39.8a3.53,3.53,0,0,0,1,2.47,3.43,3.43,0,0,0,2.47,1.06h19.27a3.53,3.53,0,0,0,2.5-1.06,3.49,3.49,0,0,0,1-2.47v-39.8a3.49,3.49,0,0,0-1-2.47,3.64,3.64,0,0,0-2.5-1Z" transform="translate(-349.05 -494.56)"/><path class="cls-1" d="M656.44,554.84a8.44,8.44,0,0,1,5.47,2.09,5.87,5.87,0,0,1,2.25,3.91v8.78c0,.12-.06.18-.19.18H649c-.13,0-.19-.06-.19-.18v-8.94a3.39,3.39,0,0,0-1-2.34,3.51,3.51,0,0,0-2.47-1.06H626a3.53,3.53,0,0,0-3.5,3.5v15.09a3.53,3.53,0,0,0,3.5,3.49h30.43a7.68,7.68,0,0,1,7.69,7.69v11.71a7.73,7.73,0,0,1-7.69,7.69H614.8a7.73,7.73,0,0,1-7.66-7.69v-7.84a.17.17,0,0,1,.19-.18h15c.15,0,.21.06.21.18v9.53a3.47,3.47,0,0,0,1,2.47A3.35,3.35,0,0,0,626,604h19.18a3.37,3.37,0,0,0,2.47-1.06,3.47,3.47,0,0,0,1-2.47V585.33a3.52,3.52,0,0,0-3.5-3.53H614.8a7.73,7.73,0,0,1-7.69-7.68V562.49a7.68,7.68,0,0,1,7.69-7.65Z" transform="translate(-349.05 -494.56)"/><rect class="cls-1" x="112.05" width="25.83" height="25.84"/><rect class="cls-1" x="145.13" width="25.84" height="25.84"/><rect class="cls-1" x="178.22" width="25.84" height="25.84"/></svg>